<svg xmlns="http://www.w3.org/2000/svg" height="1024" style="display: block;" version="1.1" viewBox="524 524 999 999" width="1024">
<defs>
	<linearGradient gradientUnits="userSpaceOnUse" id="Gradient1" x1="928.848" x2="1322.43" y1="1424.51" y2="925.616">
		<stop class="stop0" offset="0" stop-color="rgb(255,91,27)" stop-opacity="1"></stop>
		<stop class="stop1" offset="1" stop-color="rgb(0,190,214)" stop-opacity="1"></stop>
	</linearGradient>
</defs>
<path d="M 1024.97 526.922 C 1042.14 547.322 1080.18 583.271 1099.92 602.502 L 1199.92 701.9 C 1212.83 714.819 1239.46 739.602 1249.83 752.578 C 1247.57 756.006 1244.39 759.724 1241.77 762.972 C 1217.47 790.168 1157.63 826.272 1124.81 843.431 C 1099.98 856.417 1067.55 868.62 1041.21 880.775 C 1029.42 887.289 1007 900.599 995.664 905.751 L 966.706 922.267 C 943.11 936.802 903.691 963.343 883.75 981.811 C 821.246 1039.7 772.937 1121.33 753.098 1203.93 C 751.393 1211.14 749.912 1218.41 748.657 1225.71 L 745.444 1241.37 C 727.095 1225.43 705.685 1202.61 687.907 1185.13 L 574.845 1072.93 C 558.547 1056.76 542.734 1040.26 526.064 1024.46 C 542.382 1009.53 562.117 988.273 578.405 972.175 C 620.06 931.611 661.189 890.511 701.783 848.884 L 891.819 659.264 C 921.919 628.576 952.354 598.219 983.119 568.198 C 996.37 555.135 1011.43 539.044 1024.97 526.922 z" fill="rgb(37,35,137)" transform="translate(0,0)"></path>
<path d="M 1023.18 548.931 C 1039.1 559.982 1059.74 583.962 1074.11 598.677 C 1100.25 625.459 1126.88 650.599 1153.81 676.504 C 1182.67 704.26 1210.31 738.074 1241.77 762.972 C 1217.47 790.168 1157.63 826.272 1124.81 843.431 C 1099.98 856.417 1067.55 868.62 1041.21 880.775 C 1029.42 887.289 1007 900.599 995.664 905.751 C 990.735 893.882 965.209 869.123 951.564 867.978 C 950.959 867.517 946.42 863.894 946.496 863.903 C 945.998 864.259 945.906 865.291 945.779 865.73 L 945.158 865.818 C 944.884 861.173 946.695 856.805 943.651 853.161 C 937.456 845.746 930.001 838.435 923.254 831.516 C 910.787 818.78 898.394 805.972 886.077 793.091 C 871.375 777.682 857.587 761.807 843.003 746.369 C 840.911 744.155 839.03 743.752 836.153 743.261 C 838.27 741.412 836.919 741.357 835.279 739.657 L 834.365 738.697 C 836.592 735.063 861.611 710.895 865.819 707.078 C 867.9 703.91 892.126 680.309 896.016 676.456 L 966.394 605.585 C 978.492 593.634 991.21 581.955 1003.31 569.992 C 1006.18 567.153 1006.08 566.689 1006.57 563.259 C 1007.95 563.003 1008 563.081 1008.27 561.686 C 1015.19 561.59 1018.7 553.965 1023.18 548.931 z" fill="rgb(76,40,136)" transform="translate(0,0)"></path>
<path d="M 834.365 738.697 C 836.592 735.063 861.611 710.895 865.819 707.078 C 861.794 712.802 857.265 717.262 853.591 722.446 C 880.005 735.047 906.848 747.426 929.39 766.626 C 939.328 775.09 948.268 785.46 958.295 794.14 C 963.052 798.258 982.255 813.912 984.643 818.417 C 987.621 819.951 987.376 819.902 990.709 819.481 L 990.652 822.751 C 993.149 823.889 993.33 823.682 996.256 823.435 L 996.32 824.043 C 999.595 827.511 1004.98 838.852 1009.48 844.821 C 1016.27 853.806 1037.55 872.935 1041.21 880.775 C 1029.42 887.289 1007 900.599 995.664 905.751 C 990.735 893.882 965.209 869.123 951.564 867.978 C 950.959 867.517 946.42 863.894 946.496 863.903 C 945.998 864.259 945.906 865.291 945.779 865.73 L 945.158 865.818 C 944.884 861.173 946.695 856.805 943.651 853.161 C 937.456 845.746 930.001 838.435 923.254 831.516 C 910.787 818.78 898.394 805.972 886.077 793.091 C 871.375 777.682 857.587 761.807 843.003 746.369 C 840.911 744.155 839.03 743.752 836.153 743.261 C 838.27 741.412 836.919 741.357 835.279 739.657 L 834.365 738.697 z" fill="rgb(53,31,124)" transform="translate(0,0)"></path>
<path d="M 990.652 822.751 C 993.149 823.889 993.33 823.682 996.256 823.435 L 996.32 824.043 C 996.093 826.668 996.308 836.55 995.226 837.649 C 993.39 837.213 993.999 829.026 993.907 827.484 C 993.531 821.215 989.71 828.784 988.043 827.465 C 987.926 826.212 989.822 824.676 990.652 822.751 z" fill="rgb(117,97,168)" transform="translate(0,0)"></path>
<path d="M 990.652 822.751 C 988.465 822.073 986.307 821.256 983.981 821.134 C 983.129 820.902 981.078 821.391 980.425 820.381 C 979.894 819.558 981.48 819.102 981.934 818.959 C 982.837 818.779 983.74 818.598 984.643 818.417 C 987.621 819.951 987.376 819.902 990.709 819.481 L 990.652 822.751 z" fill="rgb(117,97,168)" transform="translate(0,0)"></path>
<path d="M 868.765 738.759 C 870.743 740.216 872.404 740.607 870.486 742.532 C 867.855 743.7 867.649 743.104 868.424 740.147 L 868.765 738.759 z" fill="rgb(255,255,255)" transform="translate(0,0)"></path>
<path d="M 937.451 786.266 C 937.777 786.004 938.636 785.033 939.22 785.446 C 939.379 786.094 938.972 786.475 938.593 787.125 C 936.223 790.031 937.235 787.376 937.451 786.266 z" fill="rgb(255,255,255)" transform="translate(0,0)"></path>
<path d="M 990.709 819.481 C 990.355 818.922 988.748 816.667 989.064 816.075 C 989.722 814.839 991.118 816.267 992.524 814.857 C 994.18 813.196 990.912 802.788 993.497 802.528 C 994.184 805.97 994.227 809.88 995.139 813.596 C 996.201 817.924 997.838 813.92 1000.39 815.242 C 1000.97 817.13 998.429 817.517 998.568 819.024 C 1000 820.73 1006.69 819.377 1009.47 820.821 C 1009.51 820.947 1009.55 821.072 1009.59 821.197 C 1008.83 822.457 1000.42 821.921 998.427 821.573 L 996.256 823.435 C 993.33 823.682 993.149 823.889 990.652 822.751 L 990.709 819.481 z" fill="rgb(90,69,161)" transform="translate(0,0)"></path>
<path d="M 990.709 819.481 C 994.237 816.516 994.913 817.769 997.876 820.983 L 998.427 821.573 L 996.256 823.435 C 993.33 823.682 993.149 823.889 990.652 822.751 L 990.709 819.481 z" fill="rgb(255,255,255)" transform="translate(0,0)"></path>
<path d="M 1012.21 617.968 L 1014.22 617.881 C 1015.24 618.866 1016 619.31 1017.17 620.124 L 1016.86 622.864 L 1017.18 624.415 C 1017.97 625.245 1021.24 628.942 1020.73 630.13 C 1018.72 630.423 1016.51 625.104 1015 626.53 C 1014.39 630.996 1014.9 636.55 1014.1 642.082 C 1013.81 639.887 1012.61 626.28 1010.97 625.99 C 1009.38 626.65 1008.63 629.064 1007.01 628.828 L 1006.74 628.374 C 1006.9 627.125 1009.17 623.859 1009.93 622.237 L 1009.31 621.955 L 1010.61 619.753 L 1012.21 617.968 z" fill="rgb(117,97,168)" transform="translate(0,0)"></path>
<path d="M 1012.21 617.968 L 1014.22 617.881 C 1015.24 618.866 1016 619.31 1017.17 620.124 L 1016.86 622.864 L 1017.18 624.415 C 1013.06 624.272 1012.64 625.553 1009.93 622.237 L 1009.31 621.955 L 1010.61 619.753 L 1012.21 617.968 z" fill="rgb(255,255,255)" transform="translate(0,0)"></path>
<path d="M 1009.31 621.955 C 1004.63 622.315 996.364 622.266 991.487 622.021 C 990.569 621.263 990.764 621.365 989.708 621.515 L 989.655 621.398 C 990.681 619.263 1007.21 619.797 1010.61 619.753 L 1009.31 621.955 z" fill="rgb(90,69,161)" transform="translate(0,0)"></path>
<path d="M 1017.17 620.124 C 1019.65 619.906 1031.38 619.379 1033.12 620.825 C 1033.14 620.948 1033.16 621.071 1033.18 621.194 C 1032.25 622.11 1020.46 622.229 1016.86 622.864 L 1017.17 620.124 z" fill="rgb(117,97,168)" transform="translate(0,0)"></path>
<path d="M 1144.97 742.895 C 1146.22 743.36 1146.2 746.082 1148.53 746.328 C 1148.85 746.361 1149.13 746.745 1149.21 747.081 C 1149.02 747.526 1145.75 749.173 1144.95 749.695 C 1144.53 750.481 1144.72 750.258 1144.39 750.539 C 1144.28 750.395 1144.16 750.251 1144.04 750.108 C 1144.09 747.99 1141.09 747.971 1140.79 747.044 C 1141.35 746.023 1143.14 745.64 1144.04 744.298 L 1144.97 742.895 z" fill="rgb(255,255,255)" transform="translate(0,0)"></path>
<path d="M 1129.81 682.574 C 1128.59 680.16 1129 681.4 1127.72 679.438 C 1128.39 678.334 1129.32 677.845 1130.81 675.351 C 1130.39 675.16 1135.23 679.165 1135.36 679.268 C 1134.45 681.142 1133.76 680.369 1132.32 682.586 L 1129.81 682.574 z" fill="rgb(219,211,229)" transform="translate(0,0)"></path>
<path d="M 1100.02 690.91 L 1101.96 690.276 C 1102.71 707.421 1099.61 708.54 1100.02 690.91 z" fill="rgb(90,69,161)" transform="translate(0,0)"></path>
<path d="M 1066.01 769.413 C 1067.14 768.319 1068.94 768.326 1070.07 769.428 C 1071.2 770.531 1071.24 772.33 1070.17 773.49 C 1069.45 774.272 1068.37 774.6 1067.33 774.347 C 1066.3 774.093 1065.49 773.298 1065.21 772.272 C 1064.94 771.246 1065.24 770.15 1066.01 769.413 z" fill="rgb(255,255,255)" transform="translate(0,0)"></path>
<path d="M 1012.21 617.968 C 1011.86 614.939 1011.31 608.391 1012.97 605.745 C 1014.55 605.44 1014.19 616.648 1014.22 617.881 L 1012.21 617.968 z" fill="rgb(117,97,168)" transform="translate(0,0)"></path>
<path d="M 1003.08 743.749 C 1002.62 743.428 1001.81 743.062 1001.72 742.439 C 1002.92 738.876 1007.72 737.075 1009.19 741.443 C 1008.78 742.679 1007.59 743.305 1006.65 744.121 L 1003.08 743.749 z" fill="rgb(219,211,229)" transform="translate(0,0)"></path>
<path d="M 1098.61 686.024 C 1099.72 684.978 1100.32 684.349 1101.53 683.616 C 1104.91 689.095 1108.45 684.698 1101.96 690.276 L 1100.02 690.91 L 1100.22 690.096 L 1098.61 686.024 z" fill="rgb(219,211,229)" transform="translate(0,0)"></path>
<path d="M 943.432 738.487 C 947.566 740.856 946.87 741.513 945.725 746.025 C 942.16 742.832 941.428 742.795 943.432 738.487 z" fill="rgb(255,255,255)" transform="translate(0,0)"></path>
<path d="M 1000.11 609.496 C 1005.19 611.172 1006.29 612.426 1009.5 616.523 C 1003.41 615.441 1004.56 615.101 1000.71 610.243 L 1000.11 609.496 z" fill="rgb(90,69,161)" transform="translate(0,0)"></path>
<path d="M 1081.04 615.715 C 1081.88 614.771 1083.28 614.602 1084.32 615.322 C 1085.35 616.042 1085.68 617.423 1085.08 618.53 C 1084.62 619.367 1083.73 619.871 1082.78 619.826 C 1081.83 619.78 1080.99 619.194 1080.62 618.317 C 1080.25 617.44 1080.41 616.429 1081.04 615.715 z" fill="rgb(255,255,255)" transform="translate(0,0)"></path>
<path d="M 1100.22 690.096 C 1099.17 689.827 1092.31 687.774 1091.38 687.218 C 1092.38 685.812 1096.49 686.488 1098.61 686.024 L 1100.22 690.096 z" fill="rgb(146,125,187)" transform="translate(0,0)"></path>
<path d="M 1003.08 743.749 L 1006.65 744.121 C 1006.51 744.929 1006.37 745.738 1006.25 746.549 C 1005.12 753.655 1003.78 747.207 1003.31 744.715 L 1003.08 743.749 z" fill="rgb(90,69,161)" transform="translate(0,0)"></path>
<path d="M 1053.62 700.088 C 1054.08 699.878 1055.28 699.15 1055.98 699.364 C 1056.17 699.421 1056.24 699.502 1056.26 699.686 C 1056.32 700.133 1055.58 700.816 1055.41 701.014 C 1054.47 701.381 1053.86 701.757 1052.9 701.699 C 1052.45 701.001 1053.01 700.956 1053.62 700.088 z" fill="rgb(255,255,255)" transform="translate(0,0)"></path>
<path d="M 1129.81 682.574 L 1132.32 682.586 C 1132.24 683.806 1132.32 687.211 1131.74 688.202 C 1130.4 690.474 1129.97 686.526 1129.95 685.973 L 1129.81 682.574 z" fill="rgb(117,97,168)" transform="translate(0,0)"></path>
<path d="M 1031.22 591.226 C 1032.66 590.306 1033.49 590.091 1032.77 592.175 C 1032.18 592.718 1031.95 593.403 1031.18 593.223 C 1030.88 592.582 1031.11 591.938 1031.22 591.226 z" fill="rgb(255,255,255)" transform="translate(0,0)"></path>
<path d="M 1059.22 847.384 C 1061.83 846.955 1061.03 848.014 1059.44 849.046 C 1059.25 849.015 1057.93 848.91 1057.65 848.565 C 1057.76 848.036 1058.84 847.605 1059.22 847.384 z" fill="rgb(255,255,255)" transform="translate(0,0)"></path>
<path d="M 963.671 633.417 C 964.294 633.2 964.665 632.942 965.248 633.125 C 965.501 633.909 965.11 633.789 964.451 634.569 C 964.212 634.67 962.914 635.494 962.573 634.921 C 962.684 634.298 963.249 633.868 963.671 633.417 z" fill="rgb(219,211,229)" transform="translate(0,0)"></path>
<path d="M 907.129 710.503 C 907.555 710.385 908.293 710.04 908.776 710.201 C 908.752 710.727 908.166 711.335 907.905 711.711 C 907.39 711.739 906.913 711.878 906.499 711.65 C 906.505 711.2 906.844 710.913 907.129 710.503 z" fill="rgb(255,255,255)" transform="translate(0,0)"></path>
<path d="M 967.117 676.156 C 967.408 676.059 967.7 675.961 967.991 675.864 C 968.21 676.194 968.137 676.446 968.165 676.933 C 967.841 677.115 967.517 677.297 967.193 677.478 L 967.095 677.398 C 967.017 676.903 967.04 677.258 967.117 676.156 z" fill="rgb(255,255,255)" transform="translate(0,0)"></path>
<path d="M 1096.65 786.247 C 1097.3 786.107 1097.43 786.007 1097.72 786.142 C 1097.72 786.598 1097.38 787.002 1097.14 787.422 C 1096.44 787.627 1095.97 787.866 1095.59 787.734 C 1095.69 787.22 1096.4 786.558 1096.65 786.247 z" fill="rgb(255,255,255)" transform="translate(0,0)"></path>
<path d="M 1070.13 674.169 C 1070.95 673.681 1070.67 673.8 1071.07 673.668 L 1071.13 673.698 C 1071.08 674.125 1071.14 673.844 1070.85 674.617 C 1070.29 675.215 1070.51 675.037 1070.15 675.266 L 1070.1 675.229 C 1070.04 674.812 1070.05 675.112 1070.13 674.169 z" fill="rgb(219,211,229)" transform="translate(0,0)"></path>
<path d="M 1024.97 526.922 C 1042.14 547.322 1080.18 583.271 1099.92 602.502 L 1199.92 701.9 C 1212.83 714.819 1239.46 739.602 1249.83 752.578 C 1247.57 756.006 1244.39 759.724 1241.77 762.972 C 1210.31 738.074 1182.67 704.26 1153.81 676.504 C 1126.88 650.599 1100.25 625.459 1074.11 598.677 C 1059.74 583.962 1039.1 559.982 1023.18 548.931 C 1018.7 553.965 1015.19 561.59 1008.27 561.686 C 1008 563.081 1007.95 563.003 1006.57 563.259 C 1006.08 566.689 1006.18 567.153 1003.31 569.992 C 991.21 581.955 978.492 593.634 966.394 605.585 L 896.016 676.456 C 892.126 680.309 867.9 703.91 865.819 707.078 C 861.611 710.895 836.592 735.063 834.365 738.697 C 831.373 741.219 831.35 740.956 829.383 744.083 L 828.628 745.277 C 824.466 747.883 774.244 797.434 769.658 803.238 C 748.346 827.351 717.705 849.005 696.693 874.691 C 688.214 885.056 676.051 894.925 667.086 905.808 C 648.224 923.216 630.25 941.646 612.181 959.846 C 591.433 980.747 565.435 1004.22 546.752 1026.53 C 614.731 1092.19 680.407 1160.81 748.657 1225.71 L 745.444 1241.37 C 727.095 1225.43 705.685 1202.61 687.907 1185.13 L 574.845 1072.93 C 558.547 1056.76 542.734 1040.26 526.064 1024.46 C 542.382 1009.53 562.117 988.273 578.405 972.175 C 620.06 931.611 661.189 890.511 701.783 848.884 L 891.819 659.264 C 921.919 628.576 952.354 598.219 983.119 568.198 C 996.37 555.135 1011.43 539.044 1024.97 526.922 z" fill="rgb(22,9,62)" transform="translate(0,0)"></path>
<path d="M 1006.57 563.259 C 1004.86 561.26 1006.91 559.567 1008.27 561.686 C 1008 563.081 1007.95 563.003 1006.57 563.259 z" fill="rgb(192,198,180)" transform="translate(0,0)"></path>
<path d="M 834.365 738.697 L 835.279 739.657 C 836.919 741.357 838.27 741.412 836.153 743.261 C 839.03 743.752 840.911 744.155 843.003 746.369 C 857.587 761.807 871.375 777.682 886.077 793.091 C 898.394 805.972 910.787 818.78 923.254 831.516 C 930.001 838.435 937.456 845.746 943.651 853.161 C 946.695 856.805 944.884 861.173 945.158 865.818 L 945.779 865.73 C 945.906 865.291 945.998 864.259 946.496 863.903 C 946.42 863.894 950.959 867.517 951.564 867.978 C 965.209 869.123 990.735 893.882 995.664 905.751 L 966.706 922.267 C 964.59 920.44 953.435 913.026 950.772 911.627 C 938.529 905.195 908.067 879.358 896.156 879.105 C 895.4 877.773 895.534 877.546 894.005 877.92 L 892.654 877.105 C 888.281 866.883 854.559 855.212 847.528 846.421 C 847.023 845.341 846.563 844.328 846.008 843.271 L 844.978 845.118 C 838.401 843.723 833.351 840.398 827.252 837.418 C 813.328 830.611 801.363 823.663 786.073 820.377 C 782.194 822.367 779.122 822.151 774.634 821.842 C 773.796 820.861 773.706 820.884 772.55 820.196 C 771.809 819.028 771.05 817.872 770.273 816.728 L 770.332 815.351 L 769.918 811.865 C 770.114 808.43 769.934 806.602 769.658 803.238 C 774.244 797.434 824.466 747.883 828.628 745.277 L 829.383 744.083 C 831.35 740.956 831.373 741.219 834.365 738.697 z" fill="rgb(31,20,100)" transform="translate(0,0)"></path>
<path d="M 945.779 865.73 C 945.906 865.291 945.998 864.259 946.496 863.903 C 946.42 863.894 950.959 867.517 951.564 867.978 L 950.083 869.099 C 948.849 869.999 947.829 870.942 946.82 872.083 L 945.832 872.109 L 945.311 869.228 C 945.353 867.792 945.507 867.257 945.779 865.73 z" fill="rgb(255,255,255)" transform="translate(0,0)"></path>
<path d="M 772.55 820.196 C 778.216 819.803 780.451 819.946 786.073 820.377 C 782.194 822.367 779.122 822.151 774.634 821.842 C 773.796 820.861 773.706 820.884 772.55 820.196 z" fill="rgb(90,69,161)" transform="translate(0,0)"></path>
<path d="M 834.365 738.697 L 835.279 739.657 C 836.919 741.357 838.27 741.412 836.153 743.261 L 834.713 742.75 C 833.896 742.981 833.078 743.213 832.261 743.444 L 831.164 744.951 L 829.383 744.083 C 831.35 740.956 831.373 741.219 834.365 738.697 z" fill="rgb(255,255,255)" transform="translate(0,0)"></path>
<path d="M 945.158 865.818 L 945.779 865.73 C 945.507 867.257 945.353 867.792 945.311 869.228 C 944.06 869.195 939.17 869.412 938.421 868.202 C 938.692 866.918 943.831 866.207 945.158 865.818 z" fill="rgb(117,97,168)" transform="translate(0,0)"></path>
<path d="M 945.832 872.109 L 946.82 872.083 C 948.871 882.248 945.526 881.604 945.832 872.109 z" fill="rgb(53,31,124)" transform="translate(0,0)"></path>
<path d="M 828.628 745.277 L 829.383 744.083 L 831.164 744.951 C 831.159 745.988 831.341 752.136 830.496 752.512 L 830.34 752.302 L 830.697 751.782 L 829.875 751.22 C 829.331 749.087 829.004 747.424 828.628 745.277 z" fill="rgb(146,125,187)" transform="translate(0,0)"></path>
<path d="M 846.008 843.271 C 850.248 841.444 849.662 843.755 847.528 846.421 C 847.023 845.341 846.563 844.328 846.008 843.271 z" fill="rgb(255,255,255)" transform="translate(0,0)"></path>
<path d="M 869.702 791.737 L 872.198 793.496 L 872.801 793.703 L 872.208 795.854 C 871.639 797.275 871.324 798.444 870.894 799.907 L 869.107 799.89 L 868.609 796.263 C 868.568 795.218 868.528 794.446 868.579 793.396 L 869.702 791.737 z" fill="rgb(219,211,229)" transform="translate(0,0)"></path>
<path d="M 869.702 791.737 C 869.875 789.059 870.25 784.325 870.956 781.877 L 871.295 781.622 L 871.318 781.531 C 872.234 783.065 872.176 791.298 872.198 793.496 L 869.702 791.737 z" fill="rgb(76,40,136)" transform="translate(0,0)"></path>
<path d="M 869.107 799.89 L 870.894 799.907 C 870.945 801.355 871.528 808.031 869.995 808.565 C 868.419 807.802 869.033 801.329 869.107 799.89 z" fill="rgb(117,97,168)" transform="translate(0,0)"></path>
<path d="M 868.609 796.263 C 867.307 795.866 861.92 794.975 861.634 793.984 C 862.024 792.458 867.455 793.343 868.579 793.396 C 868.528 794.446 868.568 795.218 868.609 796.263 z" fill="rgb(117,97,168)" transform="translate(0,0)"></path>
<path d="M 872.801 793.703 C 875.263 793.219 878.026 792.364 880.025 793.611 L 880.281 793.347 L 880.416 793.558 C 879.975 795.104 873.461 795.641 872.208 795.854 L 872.801 793.703 z" fill="rgb(117,97,168)" transform="translate(0,0)"></path>
<path d="M 769.658 803.238 C 769.934 806.602 770.114 808.43 769.918 811.865 C 769.008 810.975 768.996 810.785 767.796 811.255 C 766.406 815.762 767.745 814.312 764.412 816.398 L 763.239 815.914 C 763.854 814.687 764.542 813.942 764.366 813.014 C 745.596 824.946 714.006 861.089 696.68 877.605 C 689.885 884.083 674.843 902.461 667.086 905.808 C 676.051 894.925 688.214 885.056 696.693 874.691 C 717.705 849.005 748.346 827.351 769.658 803.238 z" fill="rgb(53,31,124)" transform="translate(0,0)"></path>
<path d="M 768.58 816.334 L 770.273 816.728 C 771.05 817.872 771.809 819.028 772.55 820.196 C 773.706 820.884 773.796 820.861 774.634 821.842 C 769.878 823.295 770.212 823.222 769.854 828.163 L 768.175 827.07 C 767.923 824.472 768.468 823.972 766.248 822.625 L 766.927 820.047 C 767.883 818.301 768.085 818.118 768.58 816.334 z" fill="rgb(219,211,229)" transform="translate(0,0)"></path>
<path d="M 767.796 811.255 C 768.996 810.785 769.008 810.975 769.918 811.865 L 770.332 815.351 L 770.273 816.728 L 768.58 816.334 L 768.017 814.674 L 767.796 811.255 z" fill="rgb(117,97,168)" transform="translate(0,0)"></path>
<path d="M 766.248 822.625 C 765.105 822.386 762.246 822.187 761.582 820.951 C 762.043 819.597 765.854 820.042 766.927 820.047 L 766.248 822.625 z" fill="rgb(146,125,187)" transform="translate(0,0)"></path>
<path d="M 894.005 877.92 C 895.534 877.546 895.4 877.773 896.156 879.105 C 895.981 879.68 895.882 880.887 895.044 880.902 C 894.149 880.216 894.178 878.993 894.005 877.92 z" fill="rgb(255,255,255)" transform="translate(0,0)"></path>
<path d="M 768.175 827.07 L 769.854 828.163 C 769.788 828.844 769.926 831.334 768.967 831.331 C 768.102 830.363 768.214 828.171 768.175 827.07 z" fill="rgb(117,97,168)" transform="translate(0,0)"></path>
<path d="M 808.065 891.709 C 808.727 893.515 809.417 895.312 810.136 897.096 C 809.865 901.038 810.211 904.765 810.06 908.831 C 812.35 911.019 812.269 911.319 813.503 914.354 C 812.347 915.58 811.715 916.206 810.478 917.321 C 808.405 916.446 806.833 915.716 804.839 914.67 L 804.835 913.962 C 799.693 912.128 782.967 914.047 780.84 912.188 C 780.851 912.09 780.863 911.993 780.874 911.896 C 782.599 910.786 801.44 911.689 803.527 909.595 C 803.123 909.04 802.719 908.484 802.314 907.929 L 802.895 907.316 C 803.508 907.417 805.776 908.077 806.502 907.547 C 807.306 904.7 807.995 894.215 808.065 891.709 z" fill="rgb(117,97,168)" transform="translate(0,0)"></path>
<path d="M 804.835 913.962 C 804.96 910.295 805.455 908.05 810.06 908.831 C 812.35 911.019 812.269 911.319 813.503 914.354 C 812.347 915.58 811.715 916.206 810.478 917.321 C 808.405 916.446 806.833 915.716 804.839 914.67 L 804.835 913.962 z" fill="rgb(255,255,255)" transform="translate(0,0)"></path>
<path d="M 716.547 1057.86 C 719.122 1060.41 717.29 1064.66 718.48 1069.52 C 719.052 1069.13 722.028 1066.83 722.705 1067.24 C 724.168 1068.14 719.681 1072.39 724.447 1072.03 C 725.815 1071.93 730.034 1071.89 731.086 1072.63 L 730.969 1073.02 C 730.019 1073.94 727.598 1074.17 726.496 1074.07 C 721.509 1073.63 724.419 1076.21 723.229 1077.47 C 722.132 1077.43 720.244 1076.33 718.373 1075.99 C 718.198 1078.75 718.328 1081.69 717.485 1084.18 C 715.275 1085.7 716.046 1076.84 715.188 1075.56 C 713.688 1073.33 703.805 1075.22 704.355 1072.8 C 705.786 1071.47 712.3 1071.75 714.283 1071.65 L 715.122 1071.6 C 715.725 1066.64 716.138 1062.9 716.547 1057.86 z" fill="rgb(90,69,161)" transform="translate(0,0)"></path>
<path d="M 807.157 915.66 C 804.843 917.804 797.395 925.434 794.884 925.708 C 794.79 925.604 794.696 925.499 794.603 925.395 C 795.699 923.556 803.042 916.321 804.839 914.67 C 806.833 915.716 808.405 916.446 810.478 917.321 C 809.891 920.722 810.31 940.123 808.858 940.56 C 808.07 939.931 807.177 918.234 807.157 915.66 z" fill="rgb(117,97,168)" transform="translate(0,0)"></path>
<path d="M 681.133 920.926 C 682.835 915.746 681.702 911.899 682.405 906.488 C 682.451 906.138 682.053 901.584 683.372 901.577 C 684.269 902.832 684.053 906.277 684.039 907.644 C 685.106 912.807 684.949 915.325 685.335 920.506 L 684.926 921.711 C 683.036 922.478 681.916 922.968 680.062 923.901 C 680.426 922.507 680.42 922.057 681.133 920.926 z" fill="rgb(172,163,207)" transform="translate(0,0)"></path>
<path d="M 681.133 920.926 C 682.835 915.746 681.702 911.899 682.405 906.488 C 682.451 906.138 682.053 901.584 683.372 901.577 C 684.269 902.832 684.053 906.277 684.039 907.644 C 682.852 912.349 684.229 920.119 681.133 920.926 z" fill="rgb(90,69,161)" transform="translate(0,0)"></path>
<path d="M 813.503 914.354 C 814.458 917.987 824.003 929.211 827.459 934.412 L 823.613 930.671 C 820.163 927.289 814.311 919.035 810.478 917.321 C 811.715 916.206 812.347 915.58 813.503 914.354 z" fill="rgb(117,97,168)" transform="translate(0,0)"></path>
<path d="M 680.702 926.22 C 677.993 926.095 661.845 926.111 660.418 925.198 C 660.922 923.614 678.23 923.895 680.062 923.901 L 680.702 926.22 z" fill="rgb(117,97,168)" transform="translate(0,0)"></path>
<path d="M 810.06 908.831 C 812.666 907.987 813.376 907.23 815.839 905.877 C 811.927 913.835 814.336 912.069 824.787 912.047 L 822.758 913.975 C 819.166 913.943 817.092 913.893 813.503 914.354 C 812.269 911.319 812.35 911.019 810.06 908.831 z" fill="rgb(172,163,207)" transform="translate(0,0)"></path>
<path d="M 681.072 973.713 C 687.346 980.77 683.495 977.084 682.49 982.064 L 682.213 983.507 C 676.947 978.53 677.531 980.073 681.072 973.713 z" fill="rgb(255,255,255)" transform="translate(0,0)"></path>
<path d="M 680.062 923.901 C 681.916 922.968 683.036 922.478 684.926 921.711 C 686 922.493 686.849 923.134 687.983 923.824 L 689.464 924.062 L 689.1 926.56 C 687.047 926.698 687.124 926.734 685.133 927.417 L 682.559 927.91 C 681.94 927.346 681.321 926.783 680.702 926.22 L 680.062 923.901 z" fill="rgb(255,255,255)" transform="translate(0,0)"></path>
<path d="M 784.66 851.915 C 786.031 854.559 788.47 853.894 788.56 855.055 C 789.062 853.94 783.239 859.732 783.317 859.639 C 782.639 858.499 782.173 857.157 781.091 856.322 C 780.846 856.133 779.77 855.616 779.711 855.047 C 779.87 854.75 783.921 852.456 784.66 851.915 z" fill="rgb(219,211,229)" transform="translate(0,0)"></path>
<path d="M 689.464 924.062 C 691.463 923.955 705.971 923.599 706.224 925.117 C 705.507 925.918 691.587 926.203 689.1 926.56 L 689.464 924.062 z" fill="rgb(117,97,168)" transform="translate(0,0)"></path>
<path d="M 824.787 912.047 C 830.545 911.854 835.736 911.885 841.37 912.843 L 841.347 913.11 C 839.59 914.207 825.741 913.979 822.758 913.975 L 824.787 912.047 z" fill="rgb(90,69,161)" transform="translate(0,0)"></path>
<path d="M 685.335 920.506 C 687.206 920.486 688.107 919.067 688.981 917.519 C 688.999 917.487 691.222 912.916 692.608 913.504 C 692.666 913.579 692.725 913.653 692.784 913.728 C 692.607 915.552 689.068 921.758 687.983 923.824 C 686.849 923.134 686 922.493 684.926 921.711 L 685.335 920.506 z" fill="rgb(90,69,161)" transform="translate(0,0)"></path>
<path d="M 682.559 927.91 L 685.133 927.417 C 685.063 933.91 684.922 939.151 684.425 945.609 C 683.592 939.239 683.216 934.171 682.559 927.91 z" fill="rgb(117,97,168)" transform="translate(0,0)"></path>
<path d="M 815.839 905.877 C 817.034 902.194 819.77 899.063 823.593 898.086 C 822.909 902.041 819.524 904.708 815.839 905.877 z" fill="rgb(90,69,161)" transform="translate(0,0)"></path>
<path d="M 749.135 907.217 C 751.892 909.223 751.637 910.672 749.092 912.775 C 748.353 912.309 744.601 910.528 744.706 909.639 C 745.075 909.194 748.403 907.636 749.135 907.217 z" fill="rgb(219,211,229)" transform="translate(0,0)"></path>
<path d="M 647.045 1115.85 C 648.281 1115.44 649.631 1115.98 650.248 1117.13 C 650.865 1118.27 650.572 1119.7 649.552 1120.5 C 648.711 1121.17 647.553 1121.27 646.608 1120.76 C 645.663 1120.25 645.112 1119.23 645.207 1118.16 C 645.302 1117.09 646.025 1116.18 647.045 1115.85 z" fill="rgb(255,255,255)" transform="translate(0,0)"></path>
<path d="M 794.96 913.757 C 799.583 914.291 800.107 914.221 798.283 919.081 C 793.215 918.675 793.24 918.348 794.96 913.757 z" fill="rgb(76,40,136)" transform="translate(0,0)"></path>
<path d="M 802.314 907.929 C 801.787 907.592 799.451 906.062 799.28 906.104 C 797.662 906.508 794.463 901.89 797.425 902.586 C 799.577 903.092 801.749 905.324 802.895 907.316 L 802.314 907.929 z" fill="rgb(90,69,161)" transform="translate(0,0)"></path>
<path d="M 774.013 1003.42 C 774.849 1003.3 775.684 1003.64 776.189 1004.32 C 776.695 1004.99 776.788 1005.89 776.433 1006.66 C 776.077 1007.43 775.33 1007.93 774.487 1007.98 C 773.259 1008.06 772.191 1007.15 772.064 1005.93 C 771.937 1004.71 772.797 1003.6 774.013 1003.42 z" fill="rgb(255,255,255)" transform="translate(0,0)"></path>
<path d="M 759.802 1115.2 L 761.485 1115.05 C 765.473 1118.22 762.303 1119.78 760.555 1119.1 C 760.077 1118.92 759.687 1118.56 759.465 1118.1 C 758.923 1117 759.386 1116.33 759.802 1115.2 z" fill="rgb(219,211,229)" transform="translate(0,0)"></path>
<path d="M 808.065 891.709 C 808.164 888.628 808.006 889.442 808.739 886.736 C 808.994 886.645 808.86 886.651 809.143 886.731 C 809.657 887.52 810.1 896.054 810.136 897.096 C 809.417 895.312 808.727 893.515 808.065 891.709 z" fill="rgb(76,40,136)" transform="translate(0,0)"></path>
<path d="M 635.968 954.507 C 636.831 954.275 637.187 954.01 637.897 954.33 C 638.554 955.195 636.718 955.597 636.319 955.743 C 635.801 955.731 634.571 955.89 634.444 955.23 C 634.828 954.725 635.313 954.706 635.968 954.507 z" fill="rgb(255,255,255)" transform="translate(0,0)"></path>
<path d="M 691.619 932.261 C 693.385 932.083 693.402 932.252 694.277 933.768 C 692.176 934.651 692.232 934.651 691.619 932.261 z" fill="rgb(76,40,136)" transform="translate(0,0)"></path>
<path d="M 723.594 976.976 C 724.018 976.815 725.614 975.952 726.235 976.43 C 726.318 977.002 725.477 977.596 725.153 977.923 C 723.624 978.575 721.936 979.091 723.594 976.976 z" fill="rgb(255,255,255)" transform="translate(0,0)"></path>
<path d="M 733.621 1130.42 C 734.288 1130.18 734.609 1129.94 735.227 1130.1 C 735.547 1130.91 735.151 1130.76 734.465 1131.6 C 733.938 1131.82 732.931 1132.4 732.517 1131.89 C 732.566 1131.26 733.2 1130.84 733.621 1130.42 z" fill="rgb(255,255,255)" transform="translate(0,0)"></path>
<path d="M 759.802 1115.2 C 759.979 1107.79 762.972 1108.7 761.485 1115.05 L 759.802 1115.2 z" fill="rgb(90,69,161)" transform="translate(0,0)"></path>
<path d="M 606.05 999.439 C 606.711 998.953 607.067 998.552 607.514 998.552 C 607.455 999.267 607.243 999.854 607.01 1000.57 C 606.602 1000.81 606.432 1001.02 606.049 1000.97 C 605.976 1000.56 605.998 1000.03 606.05 999.439 z" fill="rgb(255,255,255)" transform="translate(0,0)"></path>
<path d="M 865.775 927.146 C 866.172 926.997 866.783 926.654 867.242 926.721 C 867.292 927.12 866.89 927.604 866.738 927.877 C 866.633 927.897 866.528 927.917 866.423 927.936 C 865.893 928.008 865.364 928.08 864.834 928.151 C 865.148 927.816 865.461 927.481 865.775 927.146 z" fill="rgb(255,255,255)" transform="translate(0,0)"></path>
<path d="M 619.992 1054.56 C 620.667 1054.34 621.128 1054.09 621.497 1054.21 C 621.392 1054.72 620.695 1055.4 620.446 1055.71 C 619.787 1055.81 619.647 1055.9 619.362 1055.75 C 619.386 1055.31 619.744 1054.94 619.992 1054.56 z" fill="rgb(255,255,255)" transform="translate(0,0)"></path>
<path d="M 671.116 1018.09 C 671.719 1017.87 671.484 1017.89 671.861 1017.93 C 672.083 1018.24 671.963 1017.99 672.098 1018.94 C 671.761 1019.06 671.424 1019.17 671.087 1019.29 C 671.02 1018.81 671.038 1019.15 671.116 1018.09 z" fill="rgb(219,211,229)" transform="translate(0,0)"></path>
<path d="M 1322.43 823.962 C 1355.47 855.526 1386.68 887.816 1418.89 920.14 L 1521.39 1022.13 C 1508.43 1037.15 1485.99 1058.6 1471.45 1073.23 L 1369.97 1174.58 L 1169.42 1375.83 C 1121.43 1423.81 1071.36 1472.21 1024.24 1520.66 C 970.614 1469.12 917.971 1414.34 864.548 1362.35 C 840.539 1338.99 817.268 1314.06 792.491 1291.27 C 795.096 1286 797.481 1280.95 800.529 1275.92 C 801.188 1275.18 803.595 1272.88 804.514 1272.97 C 872.5 1279.69 941.946 1260.2 1001.74 1228.61 C 1013.94 1222.16 1025.86 1213.33 1038.24 1206.78 L 1038.99 1206.38 C 1042.77 1202.92 1053.25 1195.62 1057.98 1192.04 C 1069.66 1183.36 1080.68 1173.83 1090.96 1163.53 C 1099.28 1155.2 1107.15 1146.44 1114.53 1137.27 C 1118.72 1132.03 1130 1116.99 1134.26 1113.45 C 1142.92 1106.25 1153.72 1099.41 1162.84 1091.79 C 1185.21 1073.09 1200.47 1055.46 1218.61 1033.08 C 1220.02 1029.57 1232.38 1012.01 1235.5 1006.23 C 1246.63 985.539 1254.63 963.98 1265.15 943.428 C 1268.31 937.249 1281.25 920.825 1286.28 914.191 C 1301.27 891.014 1310.71 869.122 1318.1 842.792 C 1319.52 836.626 1320.9 830.062 1322.43 823.962 z" fill="url(#Gradient1)" transform="translate(0,0)"></path>
<path d="M 1322.43 823.962 C 1355.47 855.526 1386.68 887.816 1418.89 920.14 L 1521.39 1022.13 C 1508.43 1037.15 1485.99 1058.6 1471.45 1073.23 L 1369.97 1174.58 L 1169.42 1375.83 C 1121.43 1423.81 1071.36 1472.21 1024.24 1520.66 C 970.614 1469.12 917.971 1414.34 864.548 1362.35 C 840.539 1338.99 817.268 1314.06 792.491 1291.27 C 795.096 1286 797.481 1280.95 800.529 1275.92 C 824.55 1302.36 850.451 1326.7 875.406 1352.26 C 924.042 1402.09 975.186 1449.74 1023.38 1499.99 C 1062.7 1458.07 1106.59 1417.5 1146.61 1375.98 C 1151.25 1371.17 1177.25 1346.09 1179.17 1342.97 C 1184.71 1338.49 1196.54 1326.14 1201.96 1320.77 C 1218.97 1303.92 1235.89 1286.98 1252.72 1269.95 C 1286.37 1236.32 1330.66 1194.95 1362 1160.35 C 1364.27 1158.79 1383.95 1138.76 1387.72 1135.1 C 1413.28 1110.35 1438.78 1085.46 1463.35 1059.72 L 1462.58 1057.83 C 1459.17 1057.23 1456.2 1056.65 1455.07 1052.78 C 1453.53 1047.5 1451.09 1046.49 1453.23 1041.15 C 1417.21 1022.86 1387.54 986.954 1358.82 959.249 C 1359.38 955.557 1358.53 954.909 1356.12 952.884 C 1347.25 945.423 1337.39 937.153 1327.1 931.874 C 1315.53 925.933 1313.37 923.524 1305.35 913.817 C 1303.69 915.629 1303.72 915.574 1301.6 916.838 C 1298.36 916.279 1297.54 914.928 1295.17 912.563 L 1294.28 911.657 C 1291.54 914.783 1291.59 915.803 1288.28 916.843 L 1286.28 914.191 C 1301.27 891.014 1310.71 869.122 1318.1 842.792 C 1319.52 836.626 1320.9 830.062 1322.43 823.962 z" fill="rgb(22,9,62)" transform="translate(0,0)"></path>
<path d="M 1318.1 842.792 C 1321.6 843.632 1350.39 873.303 1355.68 878.518 L 1450.93 973.526 C 1462.18 984.743 1490.55 1011.49 1499.46 1022.93 C 1488.22 1035.48 1475.5 1047.99 1463.35 1059.72 L 1462.58 1057.83 C 1459.17 1057.23 1456.2 1056.65 1455.07 1052.78 C 1453.53 1047.5 1451.09 1046.49 1453.23 1041.15 C 1417.21 1022.86 1387.54 986.954 1358.82 959.249 C 1359.38 955.557 1358.53 954.909 1356.12 952.884 C 1347.25 945.423 1337.39 937.153 1327.1 931.874 C 1315.53 925.933 1313.37 923.524 1305.35 913.817 C 1303.69 915.629 1303.72 915.574 1301.6 916.838 C 1298.36 916.279 1297.54 914.928 1295.17 912.563 L 1294.28 911.657 C 1291.54 914.783 1291.59 915.803 1288.28 916.843 L 1286.28 914.191 C 1301.27 891.014 1310.71 869.122 1318.1 842.792 z" fill="rgb(6,201,220)" transform="translate(0,0)"></path>
<path d="M 960.492 1007.98 C 977.591 969.125 1003.77 934.119 1038.33 909.205 C 1058.7 894.52 1081.29 884.693 1103.84 873.893 C 1169.04 842.656 1235.21 808.868 1278.43 748.503 C 1296.85 722.778 1309.35 692.129 1321.15 662.805 C 1322.55 665.54 1322.5 667.251 1323.67 669.978 L 1324.22 673.02 C 1323.07 759.219 1308.6 873.866 1243.68 936.209 C 1216.08 962.722 1176.76 984.329 1138.51 989.307 C 1137.98 989.923 1137.82 989.881 1137.84 990.446 C 1138.32 991.125 1140.77 991.672 1141.8 992.056 C 1183.27 991.249 1203.05 985.025 1238.4 962.425 C 1206.71 1026.7 1164.41 1081.19 1094.06 1106.01 C 1070 1114.5 1048.21 1116.97 1022.65 1114.56 L 1020.61 1116.95 C 1049.79 1124.08 1074.94 1125.27 1104.86 1122.17 C 1100.81 1127.83 1096.38 1132.69 1091.61 1137.72 C 1017.41 1216.04 928.212 1255.64 820.994 1258.9 C 854.984 1181.55 944.442 1096.39 1007.97 1042.1 L 1006.66 1039.89 C 900.767 1119.19 799.201 1221.25 745.836 1343.99 C 738.678 1360.45 729.544 1381.68 724.786 1398.91 L 723.294 1396.13 C 728.418 1364.57 735.591 1333.38 744.767 1302.75 C 749.193 1288.08 755.34 1272.84 759.39 1258.59 C 762.562 1247.43 765.12 1232.34 767.872 1220.58 C 772.099 1203.29 777.238 1186.23 783.267 1169.48 C 817.498 1073.61 893.811 981.317 986.521 937.393 C 969.141 965.737 965.207 975.313 957.754 1007.05 L 960.492 1007.98 z" fill="rgb(22,9,62)" transform="translate(0,0)"></path>
<path d="M 1044.38 1012.94 C 1040.44 1017.16 1025.08 1029.2 1019.91 1032.63 L 1018.18 1031.37 C 1026.44 1024.41 1035.11 1018.45 1044.38 1012.94 z" fill="rgb(76,40,136)" transform="translate(0,0)"></path>
<path d="M 1018.18 1031.37 L 1019.91 1032.63 C 1015.9 1035.56 1011.98 1039.04 1007.97 1042.1 L 1006.66 1039.89 C 1010.45 1036.92 1014.49 1034.25 1018.18 1031.37 z" fill="rgb(219,211,229)" transform="translate(0,0)"></path>
<path d="M 1124.44 990.364 C 1126.95 990.171 1136.7 989.158 1138.51 989.307 C 1137.98 989.923 1137.82 989.881 1137.84 990.446 C 1138.32 991.125 1140.77 991.672 1141.8 992.056 C 1135.05 992.256 1131.81 991.677 1125.41 990.532 L 1124.44 990.364 z" fill="rgb(117,97,168)" transform="translate(0,0)"></path>
<path d="M 957.754 1007.05 L 960.492 1007.98 C 959.119 1012.23 958.004 1014.96 956.985 1019.39 L 955.675 1017.68 C 956.328 1014.27 957.022 1010.41 957.754 1007.05 z" fill="rgb(219,211,229)" transform="translate(0,0)"></path>
<path d="M 1016.2 1113.62 C 1018.36 1113.83 1020.61 1113.8 1022.65 1114.56 L 1020.61 1116.95 C 1019.32 1116.54 1018.06 1116.27 1016.74 1115.96 L 1016.2 1113.62 z" fill="rgb(255,255,255)" transform="translate(0,0)"></path>
<path d="M 1012.93 1114.96 C 1011.21 1114.51 1005.67 1113.35 1004.59 1112.46 L 1004.6 1112.35 C 1005.66 1111.7 1009.8 1112.17 1011.31 1112.49 L 1012.93 1114.96 z" fill="rgb(117,97,168)" transform="translate(0,0)"></path>
<path d="M 1011.31 1112.49 C 1013.64 1112.84 1014.04 1112.85 1016.2 1113.62 L 1016.74 1115.96 C 1015.35 1115.64 1014.3 1115.39 1012.93 1114.96 L 1011.31 1112.49 z" fill="rgb(148,146,165)" transform="translate(0,0)"></path>
<path d="M 956.985 1019.39 C 956.689 1020.27 956.266 1022.1 955.519 1022.6 C 954.299 1022.19 955.494 1018.37 955.675 1017.68 L 956.985 1019.39 z" fill="rgb(117,97,168)" transform="translate(0,0)"></path>
<path d="M 1323.27 656.354 C 1323.32 655.884 1323.37 655.415 1323.42 654.945 L 1324.05 654.499 L 1323.9 653.701 C 1324.07 653.616 1324.24 653.531 1324.42 653.446 C 1325.76 654.239 1324.49 670.931 1324.22 673.02 L 1323.67 669.978 C 1322.5 667.251 1322.55 665.54 1321.15 662.805 C 1321.64 660.233 1322.34 658.782 1323.27 656.354 z" fill="rgb(74,69,77)" transform="translate(0,0)"></path>
<path d="M 1323.27 656.354 C 1324.09 661.768 1323.81 664.509 1323.67 669.978 C 1322.5 667.251 1322.55 665.54 1321.15 662.805 C 1321.64 660.233 1322.34 658.782 1323.27 656.354 z" fill="rgb(21,11,34)" transform="translate(0,0)"></path>
<path d="M 724.786 1398.91 C 724.404 1400.98 723.878 1403.63 722.465 1405.19 C 721.474 1404.34 722.901 1397.49 723.294 1396.13 L 724.786 1398.91 z" fill="rgb(148,146,165)" transform="translate(0,0)"></path>
<metadata><recraft-signature>{"signed_by": "recraft", "signature_b64": "SchNhI/eDTtZYp6p3WknRdCtC9w3uxv4ShskmTh6uBSykgqEkJ5Ew7WCRS8tZ1MUvUNNMKCSusv+JSTue7eLDg==", "signing_algo": "Ed25519", "generation_timestamp": 1782778037, "identifier": "9e544e45-8152-4916-94b8-59cb34969e92"}</recraft-signature></metadata></svg>